HIERARCHY
ROOT Hips
{
	OFFSET 0.000000 0.000000 0.000000
	CHANNELS 6 Xposition Yposition Zposition Yrotation Xrotation Zrotation
	JOINT Chest
	{
		OFFSET 0.000000 -0.009281 11.569106
		CHANNELS 3 Yrotation Xrotation Zrotation
		JOINT Chest2
		{
			OFFSET -0.000000 0.016865 9.269641
			CHANNELS 3 Yrotation Xrotation Zrotation
			JOINT Chest3
			{
				OFFSET -0.000000 0.000001 8.374491
				CHANNELS 3 Yrotation Xrotation Zrotation
				JOINT Chest4
				{
					OFFSET -0.000000 0.000001 8.374493
					CHANNELS 3 Yrotation Xrotation Zrotation
					JOINT Neck
					{
						OFFSET -0.000000 0.000002 12.152554
						CHANNELS 3 Yrotation Xrotation Zrotation
						JOINT Head
						{
							OFFSET -0.000000 0.040101 7.802319
							CHANNELS 3 Yrotation Xrotation Zrotation
							End Site
							{
								OFFSET -0.000000 0.020947 14.853096
							}
						}
					}
					JOINT RightCollar
					{
						OFFSET 2.894404 0.000001 6.791374
						CHANNELS 3 Yrotation Xrotation Zrotation
						JOINT RightShoulder
						{
							OFFSET 13.574684 0.000001 0.000000
							CHANNELS 3 Yrotation Xrotation Zrotation
							JOINT RightElbow
							{
								OFFSET 23.923903 0.000002 0.000000
								CHANNELS 3 Yrotation Xrotation Zrotation
								JOINT RightWrist
								{
									OFFSET 19.846718 0.012767 0.000000
									CHANNELS 3 Yrotation Xrotation Zrotation
									End Site
									{
										OFFSET 14.973145 0.000001 0.000000
									}
								}
							}
						}
					}
					JOINT LeftCollar
					{
						OFFSET -2.894404 0.000001 6.791374
						CHANNELS 3 Yrotation Xrotation Zrotation
						JOINT LeftShoulder
						{
							OFFSET -13.574684 -0.000001 0.000000
							CHANNELS 3 Yrotation Xrotation Zrotation
							JOINT LeftElbow
							{
								OFFSET -23.923903 -0.000002 0.000000
								CHANNELS 3 Yrotation Xrotation Zrotation
								JOINT LeftWrist
								{
									OFFSET -19.846718 0.012763 0.000000
									CHANNELS 3 Yrotation Xrotation Zrotation
									End Site
									{
										OFFSET -14.973145 -0.000001 0.000000
									}
								}
							}
						}
					}
				}
			}
		}
	}
	JOINT RightHip
	{
		OFFSET 9.469263 0.004643 0.045487
		CHANNELS 3 Yrotation Xrotation Zrotation
		JOINT RightKnee
		{
			OFFSET 0.000000 0.002661 -40.478676
			CHANNELS 3 Yrotation Xrotation Zrotation
			JOINT RightAnkle
			{
				OFFSET 0.000000 0.049106 -35.224068
				CHANNELS 3 Yrotation Xrotation Zrotation
				JOINT RightToe
				{
					OFFSET -0.000001 12.539529 -6.151390
					CHANNELS 3 Yrotation Xrotation Zrotation
					End Site
					{
						OFFSET -0.000001 5.044994 -1.291870
					}
				}
			}
		}
	}
	JOINT LeftHip
	{
		OFFSET -9.469263 0.004641 0.045487
		CHANNELS 3 Yrotation Xrotation Zrotation
		JOINT LeftKnee
		{
			OFFSET 0.000000 0.002661 -40.478676
			CHANNELS 3 Yrotation Xrotation Zrotation
			JOINT LeftAnkle
			{
				OFFSET 0.000000 0.049106 -35.224068
				CHANNELS 3 Yrotation Xrotation Zrotation
				JOINT LeftToe
				{
					OFFSET -0.000001 12.539529 -6.151390
					CHANNELS 3 Yrotation Xrotation Zrotation
					End Site
					{
						OFFSET -0.000001 5.044994 -1.291870
					}
				}
			}
		}
	}
}
MOTION
Frames: 8
Frame Time: 0.016667
23.800074 8.839024 83.178658 -1.645083 -0.634349 -117.043119 -2.212870 -3.743571 2.804137 -0.717821 -1.751556 1.160996 -0.717820 -1.751555 1.160998 -0.534998 -1.315038 0.868623 1.842867 -12.270628 -4.449148 1.633428 13.375569 -7.711170 9.369790 5.331977 -2.439506 42.103701 -15.338435 -12.751132 -25.846406 -61.449183 85.966803 -40.899849 38.552931 51.637999 -8.330295 5.855893 -7.082627 -40.363959 -9.426466 21.003042 -0.737998 -62.624072 -62.993797 26.886275 9.527057 -72.014967 -5.368203 3.270612 -2.927611 4.486860 -18.320336 -16.817550 1.493866 9.241820 -2.067029 -1.327382 1.626664 0.107513 1.966126 -1.783423 13.255107 -0.724554 -6.719334 12.127498 3.691184 1.937984 11.577171 0.304238 -1.107710 -0.074544 
23.408520 8.603459 83.227936 -1.675243 -0.655019 -117.144124 -2.169813 -3.729390 2.769370 -0.768512 -1.721050 1.190519 -0.768512 -1.721049 1.190522 -0.572990 -1.292292 0.890658 1.843657 -12.378678 -4.458569 1.636391 13.174861 -7.725411 9.397997 5.571664 -2.386335 42.055681 -15.555846 -12.827838 -26.125419 -61.658290 86.264702 -40.900214 38.444601 51.609668 -8.358786 5.880021 -6.928509 -40.330044 -9.104220 21.245310 -0.662840 -62.848778 -63.065445 26.844025 9.680815 -72.211390 -4.987219 4.017423 -2.553837 3.269037 -19.553051 -14.729083 2.458736 9.463820 -1.736612 -1.397017 1.497792 0.044750 2.166334 -1.774439 12.445084 -0.620799 -6.640529 12.414448 3.424280 1.839995 12.024321 0.218293 -1.053822 -0.110461 
23.045214 8.351668 83.270226 -1.656175 -0.794720 -117.289497 -2.034404 -3.809172 2.780369 -0.814746 -1.740866 1.231109 -0.814745 -1.740865 1.231112 -0.607507 -1.307299 0.920944 1.823519 -12.353509 -4.475413 1.589663 13.220053 -7.766830 9.407598 5.292347 -2.321850 41.968360 -15.666084 -12.466866 -25.814645 -61.704455 86.145809 -41.014173 38.404269 51.486994 -8.246050 5.819377 -6.841995 -40.368785 -8.777882 21.329697 -0.603486 -62.847658 -63.184495 26.848574 9.541224 -72.399206 -4.378342 4.591677 -1.891393 1.780860 -20.393982 -10.549323 2.907052 9.653278 -2.373695 -1.254349 1.286811 0.019821 2.459831 -1.572362 11.758714 -0.414788 -6.735642 12.022549 3.344858 1.787936 12.709384 0.028209 -1.086922 -0.128121 
22.507586 8.233124 83.280930 -1.558043 -0.851550 -117.435472 -1.979512 -3.887850 2.831596 -0.845820 -1.786763 1.280740 -0.845820 -1.786763 1.280740 -0.630572 -1.341854 0.958003 1.801050 -12.239009 -4.509045 1.526783 13.430318 -7.844238 9.445962 4.839209 -2.290946 41.884677 -15.724747 -11.998162 -25.246809 -61.582406 85.780202 -41.194807 38.458097 51.336357 -8.035693 5.672472 -6.856326 -40.470640 -8.563933 21.131352 -0.310914 -62.646468 -63.424665 26.827631 9.361191 -72.468027 -3.867689 4.948293 -0.587078 0.378772 -20.748861 -5.697323 3.115751 9.726035 -3.153853 -1.025054 1.163774 -0.004704 2.746299 -1.193843 11.218926 -0.198385 -6.905527 11.014010 3.206786 1.792177 13.577418 -0.062169 -1.138230 -0.153648 
22.054649 8.011095 83.117455 -1.500189 -0.773640 -117.480292 -2.052687 -3.963951 2.814411 -0.850929 -1.815114 1.318614 -0.850929 -1.815114 1.318616 -0.634230 -1.363182 0.986354 1.769456 -12.123311 -4.537595 1.448353 13.642435 -7.916101 9.428112 4.489952 -2.350566 41.881310 -15.680132 -11.696630 -24.882155 -61.497432 85.514016 -41.343507 38.563829 51.254604 -7.882308 5.569294 -6.885995 -40.516617 -8.559426 20.826297 0.073236 -62.465857 -63.715304 26.810555 9.241171 -72.403058 -3.682838 5.244274 1.712538 -0.927847 -20.478137 -2.029962 3.612683 9.203060 -3.134484 -0.714951 1.150085 0.016372 2.970540 -0.948103 10.677760 -0.025237 -6.890747 9.946626 2.927364 1.881855 13.891535 -0.042378 -1.226685 -0.214077 
21.508465 7.964736 82.994347 -1.472505 -0.747626 -117.499184 -2.045137 -4.044439 2.809494 -0.839755 -1.815786 1.319896 -0.839755 -1.815786 1.319900 -0.625844 -1.363664 0.987349 1.737889 -12.062384 -4.540744 1.383499 13.753738 -7.937712 9.406689 4.443432 -2.343884 41.951182 -15.516040 -11.790866 -24.953973 -61.483737 85.541877 -41.376941 38.631632 51.279773 -7.858779 5.603382 -6.882969 -40.450624 -8.742318 20.627672 0.183526 -62.433817 -63.857105 26.859999 9.069523 -72.298119 -3.271930 5.269046 5.144075 -2.006907 -20.204750 0.039451 4.034749 9.036613 -2.473012 -0.342700 1.044664 0.059552 2.968981 -0.620138 10.137113 0.276776 -6.680763 8.511056 2.390819 1.902400 13.128269 0.356431 -1.308952 -0.177453 
21.011580 7.829019 82.892868 -1.389866 -0.683653 -117.514798 -2.005963 -3.979282 2.824156 -0.824589 -1.799294 1.276965 -0.824589 -1.799293 1.276969 -0.614634 -1.351203 0.955217 1.711114 -12.067406 -4.509706 1.345824 13.744066 -7.889657 9.380543 4.594775 -2.360254 42.057033 -15.370335 -12.086008 -25.326292 -61.455228 85.800304 -41.280041 38.562739 51.369836 -7.917291 5.590150 -6.907924 -40.288380 -8.859771 20.552816 0.012772 -62.562689 -63.822947 26.954595 8.908573 -72.294308 -2.978449 5.456622 9.125117 -2.669208 -19.960000 1.161943 4.383856 8.921362 -1.624036 -0.010467 0.870445 0.074898 2.728339 -0.216359 9.052976 0.743587 -6.079512 6.047257 1.580216 1.610840 12.334054 0.950868 -1.355730 -0.136400 
20.471962 7.716022 82.796341 -1.306461 -0.646904 -117.506370 -1.937114 -3.860782 2.815593 -0.804006 -1.781513 1.210045 -0.804007 -1.781513 1.210045 -0.599431 -1.337736 0.905116 1.677600 -12.114175 -4.455921 1.307158 13.657360 -7.799534 9.336910 4.706592 -2.439227 42.164120 -15.256143 -12.323768 -25.923090 -61.353158 86.239983 -41.103033 38.446332 51.482619 -8.003454 5.513273 -6.929210 -40.129311 -8.971886 20.550081 -0.048777 -62.739174 -63.878770 27.083894 8.998153 -72.335590 -2.745207 5.588716 12.793482 -2.994930 -19.581806 1.784041 4.600666 8.841505 -0.690079 0.200690 0.627092 0.050638 2.322189 0.364897 6.780862 1.196113 -5.735839 3.294948 0.647720 1.381013 12.169501 1.574569 -1.356603 -0.105874 
